<svg xmlns="http://www.w3.org/2000/svg" xmlns:xlink="http://www.w3.org/1999/xlink" version="1.1" width="1080" height="1080" viewBox="0 0 1080 1080" xml:space="preserve">
<desc>Created with Fabric.js 3.5.0</desc>
<defs>
</defs>
<rect x="0" y="0" width="100%" height="100%" fill="#ffffff"/>
<g transform="matrix(0.858 0.8756 -0.8756 0.858 540.0021 539.997)" id="351513">
<g style="" vector-effect="non-scaling-stroke">
		<g transform="matrix(2.411 0 0 2.411 -0.0088 225.053)" id="path10963">
<path style="stroke: rgb(0,0,0); stroke-width: 1; stroke-dasharray: none; stroke-linecap: butt; stroke-dashoffset: 0; stroke-linejoin: miter; stroke-miterlimit: 4; is-custom-font: none; font-file-url: none; fill: rgb(6,12,8); fill-rule: evenodd; opacity: 1;" transform=" translate(-528.1009, -522.0771)" d="m 519.34 474.81 c -2.35 1.77 -4.71 1.49 -7.07 0.25 c -3.59 -5.23 -2.45 -12.69 -4.29 -18.94 c -2.26 -7.7 -8.49 -7.34 -12 -4.17 c -9.02 8.17 -5.18 19.72 -5.3 29.68 c 0.96 12.64 10.5 21.39 3.54 34.59 c -4.76 9.02 -11.4 18.75 -13.45 28.58 c -2.68 16.44 5.4 31.98 19.26 40.37 c 13.39 6.01 28.24 8.29 45.7 9.09 c 17.15 0.78 27.08 -5.55 29.55 -17.17 c 1.35 -6.32 0.93 -12.9 -4.04 -22.23 c -2.98 -5.59 -7.36 -10.08 -9.34 -16.92 c -1.03 -3.53 -3.2 -4.2 1.77 -16.16 c 5.11 -12.33 5.93 -22.86 5.05 -33.34 c -0.47 -5.49 -3.8 -10.63 -9.6 -12.87 c -1.86 -0.73 -4.19 0.8 -4.55 2.52 c -1.2 5.82 -2.19 11.34 -7.07 14.4 c -3.84 1.79 -6.84 0.63 -9.34 -2.28 l -18.82 -15.4 z" stroke-linecap="round"/>
</g>
		<g transform="matrix(2.411 0 0 2.411 -3.0512 357.7313)" id="path11938">
<path style="stroke: rgb(0,0,0); stroke-width: 1; stroke-dasharray: none; stroke-linecap: butt; stroke-dashoffset: 0; stroke-linejoin: miter; stroke-miterlimit: 4; is-custom-font: none; font-file-url: none; fill: rgb(125,130,127); fill-rule: evenodd; opacity: 1;" transform=" translate(-526.839, -577.1076)" d="m 515.3 572.92 c 0.17 -1.21 -0.67 -2.83 2.66 -2.78 h 17.29 c 2.13 -0.14 3.33 0.53 3.1 3.09 v 8.65 c 0.14 3.07 -2.08 1.93 -3.82 2.21 h -15.31 c -3.02 0.06 -3.75 -0.9 -3.76 -2.17 l -0.16 -9 z" stroke-linecap="round"/>
</g>
		<g transform="matrix(2.411 0 0 2.411 67.4934 306.8415)" id="path11936">
<path style="stroke: rgb(0,0,0); stroke-width: 1; stroke-dasharray: none; stroke-linecap: butt; stroke-dashoffset: 0; stroke-linejoin: miter; stroke-miterlimit: 4; is-custom-font: none; font-file-url: none; fill: rgb(44,48,34); fill-rule: evenodd; opacity: 1;" transform=" translate(-556.0985, -556.0002)" d="m 541.19 547.41 c 4.28 3.4 9.27 9.62 13.76 16.04 c 2.76 4.47 5.83 8.23 9.6 10.35 c 4.01 1.48 5.42 -0.51 6.44 -3.03 c 0.25 -5.02 -2.33 -9.1 -3.92 -13.51 c -3.81 -5.77 -7.17 -11.69 -9.97 -17.8 c -14.74 -5.67 -13.25 3.76 -15.91 7.95 z" stroke-linecap="round"/>
</g>
		<g transform="matrix(2.411 0 0 2.411 17.3631 207.5039)" id="path10965">
<path style="stroke: rgb(252,252,252); stroke-width: 0.2; stroke-dasharray: none; stroke-linecap: butt; stroke-dashoffset: 0; stroke-linejoin: miter; stroke-miterlimit: 4; is-custom-font: none; font-file-url: none; fill: rgb(62,6,15); fill-rule: evenodd; opacity: 1;" transform=" translate(-535.3061, -514.7984)" d="m 560.13 482.89 c -4.25 2.36 -2.9 14.39 -10.48 16.79 c -3.8 1.2 -8.54 0.5 -11.36 -2.14 c -8.38 -4.89 -16.46 -19.04 -25.13 -14.65 c -4.86 2.46 3.22 14.13 1.77 20.58 c -2.08 9.25 -9.31 17.68 -9.73 26.52 c -0.25 5.48 2.08 10.78 10.74 11.74 c 6.83 0.76 10.72 0.61 24.37 5.81 l 16.41 -10.48 c -0.76 -4.38 1.02 -8.76 2.15 -13.13 c 3.6 -7.87 5.66 -15.75 6.56 -23.62 c -0.06 -7.42 -1.19 -19.71 -5.3 -17.42 z" stroke-linecap="round"/>
</g>
		<g transform="matrix(2.411 0 0 2.411 -1.9505 304.7115)" id="rect12911">
<rect style="stroke: rgb(0,0,0); stroke-width: 0.2; stroke-dasharray: none; stroke-linecap: round; stroke-dashoffset: 0; stroke-linejoin: miter; stroke-miterlimit: 4; is-custom-font: none; font-file-url: none; fill: rgb(8,17,14); fill-rule: evenodd; opacity: 1;" x="-11.9955" y="-3.15675" rx="0.75761" ry="3.1567" width="23.991" height="6.3135"/>
</g>
		<g transform="matrix(2.411 0 0 2.411 -1.9505 245.0392)" id="rect11940">
<rect style="stroke: rgb(0,0,0); stroke-width: 0.2; stroke-dasharray: none; stroke-linecap: round; stroke-dashoffset: 0; stroke-linejoin: miter; stroke-miterlimit: 4; is-custom-font: none; font-file-url: none; fill: rgb(8,17,14); fill-rule: evenodd; opacity: 1;" x="-11.9955" y="-3.15675" rx="0.75761" ry="3.1567" width="23.991" height="6.3135"/>
</g>
		<g transform="matrix(2.411 0 0 2.411 -36.4478 -281.8092)" id="path10935">
<path style="stroke: rgb(0,0,0); stroke-width: 1.0938; stroke-dasharray: none; stroke-linecap: butt; stroke-dashoffset: 0; stroke-linejoin: miter; stroke-miterlimit: 4; is-custom-font: none; font-file-url: none; fill: rgb(153,153,153); fill-rule: evenodd; opacity: 1;" transform=" translate(-512.9872, -311.8481)" d="m 514.91 315.14 l -0.41 0.65 s -4.81 1.89 -6.06 -0.25 c -1.25 -2.13 -0.69 -7.33 1.06 -8.29 s 5.94 4.44 5.94 4.44 l 0.23 1.13 l 2.54 0.86 l -0.34 2.63 l -2.96 -1.17 z" stroke-linecap="round"/>
</g>
		<g transform="matrix(2.411 0 0 2.411 -27.9287 -314.9962)" id="path10933">
<path style="stroke: rgb(0,0,0); stroke-width: 1.0938; stroke-dasharray: none; stroke-linecap: butt; stroke-dashoffset: 0; stroke-linejoin: miter; stroke-miterlimit: 4; is-custom-font: none; font-file-url: none; fill: rgb(153,153,153); fill-rule: evenodd; opacity: 1;" transform=" translate(-516.5207, -298.0833)" d="m 518.44 301.38 l -0.4 0.64 s -4.81 1.89 -6.06 -0.24 s -0.7 -7.33 1.05 -8.29 c 1.75 -0.97 5.95 4.43 5.95 4.43 l 0.23 1.14 l 2.53 0.85 l -0.33 2.63 l -2.97 -1.16 z" stroke-linecap="round"/>
</g>
		<g transform="matrix(2.411 0 0 2.411 -20.0169 -349.0971)" id="path10931">
<path style="stroke: rgb(0,0,0); stroke-width: 1.0938; stroke-dasharray: none; stroke-linecap: butt; stroke-dashoffset: 0; stroke-linejoin: miter; stroke-miterlimit: 4; is-custom-font: none; font-file-url: none; fill: rgb(153,153,153); fill-rule: evenodd; opacity: 1;" transform=" translate(-519.8022, -283.9394)" d="m 521.72 287.24 l -0.4 0.64 s -4.81 1.89 -6.06 -0.24 c -1.25 -2.14 -0.69 -7.33 1.06 -8.3 c 1.75 -0.96 5.94 4.44 5.94 4.44 l 0.23 1.13 l 2.53 0.86 l -0.33 2.63 l -2.97 -1.16 z" stroke-linecap="round"/>
</g>
		<g transform="matrix(2.411 0 0 2.411 -11.3601 -379.4853)" id="path10062">
<path style="stroke: rgb(0,0,0); stroke-width: 1.0938; stroke-dasharray: none; stroke-linecap: butt; stroke-dashoffset: 0; stroke-linejoin: miter; stroke-miterlimit: 4; is-custom-font: none; font-file-url: none; fill: rgb(153,153,153); fill-rule: evenodd; opacity: 1;" transform=" translate(-523.3927, -271.3354)" d="m 525.05 274.87 l -0.49 0.58 s -5.02 1.22 -5.97 -1.06 c -0.95 -2.29 0.31 -7.36 2.17 -8.08 c 1.87 -0.71 5.29 5.21 5.29 5.21 l 0.07 1.15 l 2.4 1.2 l -0.69 2.55 l -2.78 -1.55 z" stroke-linecap="round"/>
</g>
		<g transform="matrix(2.411 0 0 2.411 9.2547 -320.1968)" id="path10961">
<path style="stroke: rgb(0,0,0); stroke-width: 1; stroke-dasharray: none; stroke-linecap: butt; stroke-dashoffset: 0; stroke-linejoin: miter; stroke-miterlimit: 4; is-custom-font: none; font-file-url: none; fill: rgb(165,132,79); fill-rule: evenodd; opacity: 1;" transform=" translate(-531.943, -295.9263)" d="m 525.53 328.71 c -3.34 -2.3 -8.87 -3.32 -8.96 -7.82 c -0.28 -13.7 11.11 -47.23 11.11 -47.23 c 0.46 -5.92 3.33 -11.57 10.98 -10.35 c 10.44 1.66 9.29 9.47 7.45 15.28 c -0.83 2.64 -2.66 5.02 -6.06 5.8 c 0.32 4.09 0.56 8.03 1.64 12.25 c 1.9 7.41 4.04 17.93 4.04 17.93 c -4.57 3.3 -8.58 7.07 -8.83 14.02 l -11.37 0.12 z" stroke-linecap="round"/>
</g>
		<g transform="matrix(2.411 0 0 2.411 0.9294 -35.0026)" id="path10068">
<path style="stroke: rgb(0,0,0); stroke-width: 0.8401; stroke-dasharray: none; stroke-linecap: butt; stroke-dashoffset: 0; stroke-linejoin: miter; stroke-miterlimit: 4; is-custom-font: none; font-file-url: none; fill: rgb(200,113,55); fill-rule: evenodd; opacity: 1;" transform=" translate(-528.49, -414.215)" d="m 524.72 330.58 l -5.51 167.27 l 18.32 -0.09 l 0.24 -166.84 l -13.05 -0.34 z" stroke-linecap="round"/>
</g>
		<g transform="matrix(2.411 -0.0116 -0.0015 2.411 1.0668 159.991)" id="rect10070">
<rect style="stroke: rgb(0,0,0); stroke-width: 0.1975; stroke-dasharray: none; stroke-linecap: butt; stroke-dashoffset: 0; stroke-linejoin: miter; stroke-miterlimit: 4; is-custom-font: none; font-file-url: none; fill: rgb(204,204,204); fill-rule: evenodd; opacity: 1;" x="-9.1945" y="-0.3347" rx="0.14565" ry="0.14565" width="18.389" height="0.6694"/>
</g>
		<g transform="matrix(2.411 -0.0116 -0.0015 2.411 1.1198 152.0345)" id="rect10080">
<rect style="stroke: rgb(0,0,0); stroke-width: 0.1975; stroke-dasharray: none; stroke-linecap: butt; stroke-dashoffset: 0; stroke-linejoin: miter; stroke-miterlimit: 4; is-custom-font: none; font-file-url: none; fill: rgb(204,204,204); fill-rule: evenodd; opacity: 1;" x="-9.1945" y="-0.3347" rx="0.14565" ry="0.14565" width="18.389" height="0.6694"/>
</g>
		<g transform="matrix(2.411 -0.0116 -0.0015 2.411 0.9568 142.6823)" id="rect10082">
<rect style="stroke: rgb(0,0,0); stroke-width: 0.1962; stroke-dasharray: none; stroke-linecap: butt; stroke-dashoffset: 0; stroke-linejoin: miter; stroke-miterlimit: 4; is-custom-font: none; font-file-url: none; fill: rgb(204,204,204); fill-rule: evenodd; opacity: 1;" x="-9.0545" y="-0.3354" rx="0.14596" ry="0.14596" width="18.109" height="0.6708"/>
</g>
		<g transform="matrix(2.411 -0.0116 -0.0015 2.411 0.9141 133.5431)" id="rect10084">
<rect style="stroke: rgb(0,0,0); stroke-width: 0.1975; stroke-dasharray: none; stroke-linecap: butt; stroke-dashoffset: 0; stroke-linejoin: miter; stroke-miterlimit: 4; is-custom-font: none; font-file-url: none; fill: rgb(204,204,204); fill-rule: evenodd; opacity: 1;" x="-9.1945" y="-0.3347" rx="0.14565" ry="0.14565" width="18.389" height="0.6694"/>
</g>
		<g transform="matrix(2.411 -0.0116 -0.0015 2.411 1.2095 123.4879)" id="rect10086">
<rect style="stroke: rgb(0,0,0); stroke-width: 0.1975; stroke-dasharray: none; stroke-linecap: butt; stroke-dashoffset: 0; stroke-linejoin: miter; stroke-miterlimit: 4; is-custom-font: none; font-file-url: none; fill: rgb(204,204,204); fill-rule: evenodd; opacity: 1;" x="-9.1945" y="-0.3347" rx="0.14565" ry="0.14565" width="18.389" height="0.6694"/>
</g>
		<g transform="matrix(2.411 -0.0116 -0.0015 2.411 1.6026 111.4086)" id="rect10088">
<rect style="stroke: rgb(0,0,0); stroke-width: 0.1962; stroke-dasharray: none; stroke-linecap: butt; stroke-dashoffset: 0; stroke-linejoin: miter; stroke-miterlimit: 4; is-custom-font: none; font-file-url: none; fill: rgb(204,204,204); fill-rule: evenodd; opacity: 1;" x="-9.0545" y="-0.3354" rx="0.14596" ry="0.14596" width="18.109" height="0.6708"/>
</g>
		<g transform="matrix(2.411 -0.0116 -0.0015 2.411 2.5033 97.0597)" id="rect10090">
<rect style="stroke: rgb(0,0,0); stroke-width: 0.1955; stroke-dasharray: none; stroke-linecap: butt; stroke-dashoffset: 0; stroke-linejoin: miter; stroke-miterlimit: 4; is-custom-font: none; font-file-url: none; fill: rgb(204,204,204); fill-rule: evenodd; opacity: 1;" x="-8.9845" y="-0.3358" rx="0.14612" ry="0.14612" width="17.969" height="0.6716"/>
</g>
		<g transform="matrix(2.411 -0.0116 -0.0015 2.411 2.3417 85.269)" id="rect10092">
<rect style="stroke: rgb(0,0,0); stroke-width: 0.1968; stroke-dasharray: none; stroke-linecap: butt; stroke-dashoffset: 0; stroke-linejoin: miter; stroke-miterlimit: 4; is-custom-font: none; font-file-url: none; fill: rgb(204,204,204); fill-rule: evenodd; opacity: 1;" x="-9.1245" y="-0.33505" rx="0.14581" ry="0.14581" width="18.249" height="0.6701"/>
</g>
		<g transform="matrix(2.411 -0.0116 -0.0015 2.411 2.4721 71.0945)" id="rect10094">
<rect style="stroke: rgb(0,0,0); stroke-width: 0.1949; stroke-dasharray: none; stroke-linecap: butt; stroke-dashoffset: 0; stroke-linejoin: miter; stroke-miterlimit: 4; is-custom-font: none; font-file-url: none; fill: rgb(204,204,204); fill-rule: evenodd; opacity: 1;" x="-8.915" y="-0.33615" rx="0.14628" ry="0.14628" width="17.83" height="0.6723"/>
</g>
		<g transform="matrix(2.411 -0.0116 -0.0015 2.411 2.8676 55.0595)" id="rect10096">
<rect style="stroke: rgb(0,0,0); stroke-width: 0.1949; stroke-dasharray: none; stroke-linecap: butt; stroke-dashoffset: 0; stroke-linejoin: miter; stroke-miterlimit: 4; is-custom-font: none; font-file-url: none; fill: rgb(204,204,204); fill-rule: evenodd; opacity: 1;" x="-8.915" y="-0.33615" rx="0.14628" ry="0.14628" width="17.83" height="0.6723"/>
</g>
		<g transform="matrix(2.411 -0.0116 -0.0015 2.411 2.8768 39.8477)" id="rect10098">
<rect style="stroke: rgb(0,0,0); stroke-width: 0.1935; stroke-dasharray: none; stroke-linecap: butt; stroke-dashoffset: 0; stroke-linejoin: miter; stroke-miterlimit: 4; is-custom-font: none; font-file-url: none; fill: rgb(204,204,204); fill-rule: evenodd; opacity: 1;" x="-8.775" y="-0.3369" rx="0.1466" ry="0.1466" width="17.55" height="0.6738"/>
</g>
		<g transform="matrix(2.411 -0.0116 -0.0015 2.411 2.8878 21.7948)" id="rect10100">
<rect style="stroke: rgb(0,0,0); stroke-width: 0.1895; stroke-dasharray: none; stroke-linecap: butt; stroke-dashoffset: 0; stroke-linejoin: miter; stroke-miterlimit: 4; is-custom-font: none; font-file-url: none; fill: rgb(204,204,204); fill-rule: evenodd; opacity: 1;" x="-8.355" y="-0.33915" rx="0.14758" ry="0.14758" width="16.71" height="0.6783"/>
</g>
		<g transform="matrix(2.411 -0.0116 -0.0015 2.411 3.4037 6.0235)" id="rect10102">
<rect style="stroke: rgb(0,0,0); stroke-width: 0.1902; stroke-dasharray: none; stroke-linecap: butt; stroke-dashoffset: 0; stroke-linejoin: miter; stroke-miterlimit: 4; is-custom-font: none; font-file-url: none; fill: rgb(204,204,204); fill-rule: evenodd; opacity: 1;" x="-8.425" y="-0.33875" rx="0.14742" ry="0.14742" width="16.85" height="0.6775"/>
</g>
		<g transform="matrix(2.411 -0.0116 -0.0015 2.411 3.7049 -13.5812)" id="rect10104">
<rect style="stroke: rgb(0,0,0); stroke-width: 0.1915; stroke-dasharray: none; stroke-linecap: butt; stroke-dashoffset: 0; stroke-linejoin: miter; stroke-miterlimit: 4; is-custom-font: none; font-file-url: none; fill: rgb(204,204,204); fill-rule: evenodd; opacity: 1;" x="-8.565" y="-0.338" rx="0.14709" ry="0.14709" width="17.13" height="0.676"/>
</g>
		<g transform="matrix(2.411 -0.0116 -0.0015 2.411 7.2007 -209.8386)" id="rect10106">
<rect style="stroke: rgb(0,0,0); stroke-width: 0.181; stroke-dasharray: none; stroke-linecap: butt; stroke-dashoffset: 0; stroke-linejoin: miter; stroke-miterlimit: 4; is-custom-font: none; font-file-url: none; fill: rgb(204,204,204); fill-rule: evenodd; opacity: 1;" x="-7.5155" y="-0.3439" rx="0.14964" ry="0.14964" width="15.031" height="0.6878"/>
</g>
		<g transform="matrix(2.411 -0.0116 -0.0015 2.411 8.0819 -237.6955)" id="rect10108">
<rect style="stroke: rgb(0,0,0); stroke-width: 0.4262; stroke-dasharray: none; stroke-linecap: butt; stroke-dashoffset: 0; stroke-linejoin: miter; stroke-miterlimit: 4; is-custom-font: none; font-file-url: none; fill: rgb(204,204,204); fill-rule: evenodd; opacity: 1;" x="-6.904" y="-1.2215" rx="0.15187" ry="0.15187" width="13.808" height="2.443"/>
</g>
		<g transform="matrix(2.411 -0.0116 -0.0015 2.411 5.9365 -152.8908)" id="rect10110">
<rect style="stroke: rgb(0,0,0); stroke-width: 0.1853; stroke-dasharray: none; stroke-linecap: butt; stroke-dashoffset: 0; stroke-linejoin: miter; stroke-miterlimit: 4; is-custom-font: none; font-file-url: none; fill: rgb(204,204,204); fill-rule: evenodd; opacity: 1;" x="-7.9355" y="-0.34145" rx="0.14859" ry="0.14859" width="15.871" height="0.6829"/>
</g>
		<g transform="matrix(2.411 -0.0116 -0.0015 2.411 6.1223 -180.9508)" id="rect10112">
<rect style="stroke: rgb(0,0,0); stroke-width: 0.1817; stroke-dasharray: none; stroke-linecap: butt; stroke-dashoffset: 0; stroke-linejoin: miter; stroke-miterlimit: 4; is-custom-font: none; font-file-url: none; fill: rgb(204,204,204); fill-rule: evenodd; opacity: 1;" x="-7.5855" y="-0.34345" rx="0.14946" ry="0.14946" width="15.171" height="0.6869"/>
</g>
		<g transform="matrix(2.411 -0.0116 -0.0015 2.411 5.9203 -126.1026)" id="rect10114">
<rect style="stroke: rgb(0,0,0); stroke-width: 0.1839; stroke-dasharray: none; stroke-linecap: butt; stroke-dashoffset: 0; stroke-linejoin: miter; stroke-miterlimit: 4; is-custom-font: none; font-file-url: none; fill: rgb(204,204,204); fill-rule: evenodd; opacity: 1;" x="-7.7955" y="-0.34225" rx="0.14894" ry="0.14894" width="15.591" height="0.6845"/>
</g>
		<g transform="matrix(2.411 -0.0116 -0.0015 2.411 5.5674 -101.0045)" id="rect10116">
<rect style="stroke: rgb(0,0,0); stroke-width: 0.1853; stroke-dasharray: none; stroke-linecap: butt; stroke-dashoffset: 0; stroke-linejoin: miter; stroke-miterlimit: 4; is-custom-font: none; font-file-url: none; fill: rgb(204,204,204); fill-rule: evenodd; opacity: 1;" x="-7.9355" y="-0.34145" rx="0.14859" ry="0.14859" width="15.871" height="0.6829"/>
</g>
		<g transform="matrix(2.411 -0.0116 -0.0015 2.411 4.8543 -77.9741)" id="rect10118">
<rect style="stroke: rgb(0,0,0); stroke-width: 0.1839; stroke-dasharray: none; stroke-linecap: butt; stroke-dashoffset: 0; stroke-linejoin: miter; stroke-miterlimit: 4; is-custom-font: none; font-file-url: none; fill: rgb(204,204,204); fill-rule: evenodd; opacity: 1;" x="-7.7955" y="-0.34225" rx="0.14894" ry="0.14894" width="15.591" height="0.6845"/>
</g>
		<g transform="matrix(2.411 -0.0116 -0.0015 2.411 4.694 -54.4003)" id="rect10120">
<rect style="stroke: rgb(0,0,0); stroke-width: 0.1888; stroke-dasharray: none; stroke-linecap: butt; stroke-dashoffset: 0; stroke-linejoin: miter; stroke-miterlimit: 4; is-custom-font: none; font-file-url: none; fill: rgb(204,204,204); fill-rule: evenodd; opacity: 1;" x="-8.285" y="-0.33955" rx="0.14775" ry="0.14775" width="16.57" height="0.6791"/>
</g>
		<g transform="matrix(2.411 -0.0116 -0.0015 2.411 4.2718 -33.954)" id="rect10122">
<rect style="stroke: rgb(0,0,0); stroke-width: 0.1895; stroke-dasharray: none; stroke-linecap: butt; stroke-dashoffset: 0; stroke-linejoin: miter; stroke-miterlimit: 4; is-custom-font: none; font-file-url: none; fill: rgb(204,204,204); fill-rule: evenodd; opacity: 1;" x="-8.355" y="-0.33915" rx="0.14758" ry="0.14758" width="16.71" height="0.6783"/>
</g>
		<g transform="matrix(2.411 0 0 2.411 -12.6325 45.585)" id="path10144">
<path style="stroke: rgb(85,85,85); stroke-width: 0.4383; stroke-dasharray: none; stroke-linecap: butt; stroke-dashoffset: 0; stroke-linejoin: miter; stroke-miterlimit: 4; is-custom-font: none; font-file-url: none; fill: none; fill-rule: nonzero; opacity: 1;" transform=" translate(-522.865, -447.64)" d="m 524.63 319.69 l 1.81 9.78 l -7.15 246.12" stroke-linecap="round"/>
</g>
		<g transform="matrix(2.411 0 0 2.411 -2.3978 28.262)" id="path10146">
<path style="stroke: rgb(85,85,85); stroke-width: 0.4385; stroke-dasharray: none; stroke-linecap: butt; stroke-dashoffset: 0; stroke-linejoin: miter; stroke-miterlimit: 4; is-custom-font: none; font-file-url: none; fill: none; fill-rule: nonzero; opacity: 1;" transform=" translate(-527.11, -440.455)" d="m 528.67 305.8 l 0.99 24.47 l -5.1 244.84" stroke-linecap="round"/>
</g>
		<g transform="matrix(2.411 0 0 2.411 7.9694 12.6749)" id="path10148">
<path style="stroke: rgb(85,85,85); stroke-width: 0.4387; stroke-dasharray: none; stroke-linecap: butt; stroke-dashoffset: 0; stroke-linejoin: miter; stroke-miterlimit: 4; is-custom-font: none; font-file-url: none; fill: none; fill-rule: nonzero; opacity: 1;" transform=" translate(-531.41, -433.99)" d="m 532.09 293.59 l 0.61 36.44 l -2.58 244.36" stroke-linecap="round"/>
</g>
		<g transform="matrix(2.411 0 0 2.411 18.0957 -3.3462)" id="path10150">
<path style="stroke: rgb(85,85,85); stroke-width: 0.4386; stroke-dasharray: none; stroke-linecap: butt; stroke-dashoffset: 0; stroke-linejoin: miter; stroke-miterlimit: 4; is-custom-font: none; font-file-url: none; fill: none; fill-rule: nonzero; opacity: 1;" transform=" translate(-535.61, -427.345)" d="m 535.97 279.57 l -0.72 50.69 l 0.34 244.86" stroke-linecap="round"/>
</g>
		<g transform="matrix(1.9282 -0.0078 -0.0014 2.0028 -8.5324 -262.9712)" id="path10158">
<path style="stroke: none; stroke-width: 1; stroke-dasharray: none; stroke-linecap: butt; stroke-dashoffset: 0; stroke-linejoin: miter; stroke-miterlimit: 4; is-custom-font: none; font-file-url: none; fill: rgb(179,179,179); fill-rule: nonzero; opacity: 1;" transform=" translate(-251.965, -205.58)" d="m 255.36 205.58 a 3.3929 3.3929 0 1 1 -6.79 0 a 3.3929 3.3929 0 1 1 6.79 0 z" stroke-linecap="round"/>
</g>
		<g transform="matrix(1.9282 -0.0078 -0.0014 2.0028 0.2919 -295.8331)" id="path10937">
<path style="stroke: none; stroke-width: 1; stroke-dasharray: none; stroke-linecap: butt; stroke-dashoffset: 0; stroke-linejoin: miter; stroke-miterlimit: 4; is-custom-font: none; font-file-url: none; fill: rgb(179,179,179); fill-rule: nonzero; opacity: 1;" transform=" translate(-251.965, -205.58)" d="m 255.36 205.58 a 3.3929 3.3929 0 1 1 -6.79 0 a 3.3929 3.3929 0 1 1 6.79 0 z" stroke-linecap="round"/>
</g>
		<g transform="matrix(1.9282 -0.0078 -0.0014 2.0028 8.5134 -329.0326)" id="path10939">
<path style="stroke: none; stroke-width: 1; stroke-dasharray: none; stroke-linecap: butt; stroke-dashoffset: 0; stroke-linejoin: miter; stroke-miterlimit: 4; is-custom-font: none; font-file-url: none; fill: rgb(179,179,179); fill-rule: nonzero; opacity: 1;" transform=" translate(-251.965, -205.58)" d="m 255.36 205.58 a 3.3929 3.3929 0 1 1 -6.79 0 a 3.3929 3.3929 0 1 1 6.79 0 z" stroke-linecap="round"/>
</g>
		<g transform="matrix(1.9282 -0.0078 -0.0014 2.0028 15.8187 -362.8107)" id="path10941">
<path style="stroke: none; stroke-width: 1; stroke-dasharray: none; stroke-linecap: butt; stroke-dashoffset: 0; stroke-linejoin: miter; stroke-miterlimit: 4; is-custom-font: none; font-file-url: none; fill: rgb(179,179,179); fill-rule: nonzero; opacity: 1;" transform=" translate(-251.965, -205.58)" d="m 255.36 205.58 a 3.3929 3.3929 0 1 1 -6.79 0 a 3.3929 3.3929 0 1 1 6.79 0 z" stroke-linecap="round"/>
</g>
		<g transform="matrix(2.4061 -0.1543 0.1543 2.4061 -2.8697 353.28)" id="rect12913">
<rect style="stroke: rgb(0,0,0); stroke-width: 0.2; stroke-dasharray: none; stroke-linecap: round; stroke-dashoffset: 0; stroke-linejoin: miter; stroke-miterlimit: 4; is-custom-font: none; font-file-url: none; fill: rgb(159,166,158); fill-rule: evenodd; opacity: 1;" x="-10.223" y="-0.58035" rx="0.75761" ry="1.1607" width="20.446" height="1.1607"/>
</g>
</g>
</g>
</svg>